<svg width="338" height="64" viewBox="0 0 338 64" fill="none" xmlns="http://www.w3.org/2000/svg">
<path d="M11.7447 63.8835L0.695312 46.5944L5.65575 43.4263C9.09547 41.2297 12.9335 41.8452 15.1301 45.2849C17.3085 48.6884 16.518 52.9187 13.1145 55.0972L11.5274 56.111L15.118 61.7292L11.7447 63.8835ZM11.0446 51.573C12.4688 50.6617 12.7223 48.7307 11.8352 47.3427C11.0326 46.0875 9.23427 45.7496 7.87648 46.6125L6.15662 47.7108L9.32478 52.6713L11.0446 51.573Z" fill="white"/>
<path d="M33.33 50.9939L30.18 47.9706L24.5558 51.006L25.3583 55.2966L21.9066 57.1613C20.6514 50.131 19.4203 42.9015 18.1289 35.8893L21.0617 34.3022L36.7818 49.1292L33.33 50.9939ZM22.7997 40.9886L23.8256 46.8542L27.1024 45.0861L22.7936 40.9946L22.7997 40.9886Z" fill="white"/>
<path d="M39.0387 48.1153L30.373 29.5227L33.9998 27.833L42.6655 46.4256L39.0387 48.1153Z" fill="white"/>
<path d="M46.0397 38.0253C47.3431 39.1477 49.3165 39.5339 50.807 38.9304C51.9355 38.4718 52.6294 37.2649 52.201 36.2088C51.8631 35.37 50.8191 34.7786 48.538 34.4769C45.2974 34.0967 42.0448 33.801 40.7051 30.4941C39.468 27.4406 41.1275 24.3147 44.3621 23.0052C46.9449 21.9612 49.413 22.3172 51.4286 23.7414L49.9441 27.3863C48.5018 26.2337 47.0837 25.9621 45.8104 26.475C44.5371 26.988 44.1931 28.0199 44.5612 28.9251C44.8871 29.7277 45.9009 30.2467 48.188 30.4639C51.4165 30.8079 54.826 31.2907 56.1476 34.5614C57.427 37.7235 55.6407 41.1572 52.0743 42.5934C49.5639 43.6073 46.4198 43.3598 44.3319 41.7486L46.0336 38.0132L46.0397 38.0253Z" fill="white"/>
<path d="M71.7413 35.1352L69.1645 31.611L63.0937 33.6265L63.142 37.9956L59.4187 39.2327C59.4006 32.0877 59.4428 24.7557 59.3945 17.6228L62.5567 16.5728L75.4647 33.9041L71.7413 35.1412V35.1352ZM63.1058 23.4522V29.4083L66.636 28.2316L63.1058 23.4522Z" fill="white"/>
<path d="M87.6359 30.5787L78.6504 20.6095L81.6797 32.1416L77.8116 33.1615L72.5977 13.3198L76.502 12.2939L84.7755 21.394L82.0056 10.8456L85.9522 9.80762L91.1661 29.6494L87.6359 30.5787Z" fill="white"/>
<path d="M92.3793 18.546C91.2991 13.121 93.369 7.83465 98.2148 6.86911C102.988 5.92168 106.995 10.0011 108.075 15.4262C109.222 21.1952 107.086 26.5419 102.312 27.4893C97.4665 28.4549 93.5259 24.3151 92.3793 18.546ZM103.845 16.271C103.139 12.7347 101.178 10.4838 99.0234 10.9123C96.7544 11.3649 95.9096 14.171 96.6156 17.7072C97.3579 21.4366 99.2226 23.7901 101.492 23.3375C103.646 22.9091 104.587 20.0004 103.845 16.271Z" fill="white"/>
<path d="M135.857 22.2328L134.101 18.2379L127.741 18.9017L126.848 23.1741L122.949 23.5785C124.47 16.5964 126.087 9.44545 127.572 2.46946L130.891 2.12549L139.768 21.8284L135.869 22.2328H135.857ZM129.937 8.96872L128.652 14.78L132.357 14.3938L129.937 8.96872Z" fill="white"/>
<path d="M152.399 21.0741L145.641 9.48165L146.25 21.3879L142.255 21.5931L141.205 1.10564L145.242 0.90046L151.482 11.4972L150.927 0.604765L155 0.393555L156.05 20.881L152.405 21.0681L152.399 21.0741Z" fill="white"/>
<path d="M160.256 20.6338L160.455 0.116211L165.832 0.170522C171.993 0.230868 175.016 3.67662 174.95 10.5017C174.884 17.3691 171.752 20.7485 165.512 20.6881L160.256 20.6338ZM165.313 16.7174C169.199 16.7536 170.708 15.0036 170.75 10.4957C170.798 5.82494 169.32 4.08697 165.44 4.05077L164.498 4.0387L164.371 16.7113L165.313 16.7234V16.7174Z" fill="white"/>
<path d="M188.854 21.2133L190.592 0.768066L195.944 1.22066C202.082 1.73964 204.839 5.40263 204.26 12.2036C203.681 19.0469 200.301 22.1848 194.086 21.6538L188.848 21.2072L188.854 21.2133ZM194.194 17.6951C198.062 18.027 199.698 16.3916 200.078 11.8959C200.476 7.24319 199.137 5.3966 195.262 5.07073L194.327 4.99228L193.253 17.6167L194.188 17.6951H194.194Z" fill="white"/>
<path d="M217.331 24.2367L216.576 19.9341L210.24 19.0651L208.351 22.9996L204.465 22.4686C207.603 16.0478 210.88 9.49422 213.981 3.06738L217.282 3.51998L221.211 24.7678L217.325 24.2307L217.331 24.2367ZM214.742 9.94079L212.105 15.2814L215.798 15.7883L214.742 9.94079Z" fill="white"/>
<path d="M236.351 6.69975L240.316 7.46614L237.673 21.219C236.949 24.9906 233.563 27.4165 229.599 26.6562C225.634 25.8958 223.407 22.5104 224.155 18.6181L226.799 4.86523L230.727 5.61956L228.174 18.8715C227.861 20.4888 228.784 22.1423 230.401 22.4561C232.019 22.7699 233.485 21.575 233.799 19.9517L236.345 6.69975H236.351Z" fill="white"/>
<path d="M252.687 22.9514L249.76 22.2031L251.251 18.4134L257.521 20.0125L255.433 28.1834C254.534 29.3299 251.703 31.5205 247.944 30.561C243.158 29.336 241.312 23.7238 242.639 18.522C243.997 13.1995 248.445 8.95111 253.194 10.1641C255.855 10.846 257.672 12.602 258.335 15.4021L254.709 17.3935C254.401 15.734 253.526 14.7443 252.077 14.3762C249.76 13.7848 247.781 15.9935 246.906 19.4091C245.976 23.06 246.682 25.9928 249.114 26.6144C250.14 26.8739 251.1 26.5963 251.884 26.0652L252.681 22.9514H252.687Z" fill="white"/>
<path d="M266.822 35.7805L269.501 27.495L264.577 25.9019L261.898 34.1874L258.09 32.9563L264.408 13.4404L268.216 14.6715L265.826 22.0639L270.75 23.657L273.14 16.2646L276.984 17.5077L270.666 37.0236L266.822 35.7805Z" fill="white"/>
<path d="M278.19 39.7818L284.309 24.3152L280.187 22.6858L281.617 19.0771L293.469 23.7721L292.039 27.3807L288.062 25.8057L281.943 41.2724L278.184 39.7879L278.19 39.7818Z" fill="white"/>
<path d="M289.252 44.2049L298.02 25.6606L308.267 30.5064L306.607 34.0186L299.975 30.8806L298.316 34.3927L303.457 36.8246L301.731 40.4756L296.59 38.0436L294.562 42.3342L301.194 45.4722L299.499 49.0568L289.252 44.211V44.2049Z" fill="white"/>
<path d="M310.161 54.7777L311.127 47.6629L309.624 46.812L306.335 52.6112L302.854 50.6379L312.967 32.7876L318.085 35.6902C322.146 37.9894 322.689 41.7248 320.873 44.9352C319.654 47.0835 317.312 48.5982 314.832 48.6767L313.74 56.8053L310.155 54.7777H310.161ZM313.414 44.2714C314.88 45.1042 316.709 44.4223 317.518 42.9921C318.254 41.6947 317.711 39.9446 316.311 39.1541L314.536 38.1463L311.634 43.2637L313.408 44.2714H313.414Z" fill="white"/>
<path d="M322.406 54.8137C322.189 56.5215 322.956 58.3802 324.283 59.2914C325.285 59.9793 326.679 59.8888 327.325 58.9535C327.838 58.2112 327.753 57.0103 326.751 54.9405C325.279 52.0257 323.728 49.1533 325.75 46.2084C327.614 43.4928 331.133 43.1489 334.011 45.1282C336.304 46.7032 337.372 48.9602 337.3 51.4283L333.438 52.2007C333.607 50.3662 333.045 49.0266 331.917 48.2541C330.789 47.4817 329.739 47.7533 329.183 48.5619C328.695 49.274 328.821 50.4085 329.901 52.4361C331.398 55.3206 332.877 58.4284 330.879 61.3371C328.948 64.1492 325.098 64.5536 321.93 62.3811C319.697 60.8483 318.17 58.0845 318.357 55.4534L322.413 54.8137H322.406Z" fill="white"/>
</svg>
