<svg width="682" height="346" viewBox="0 0 682 346" fill="none" xmlns="http://www.w3.org/2000/svg">
<path d="M33.3959 156.299C31.8805 155.977 31.3306 153.858 31.344 152.477C30.8747 115.486 32.0146 78.442 31.3843 41.4648C31.344 39.3323 29.9493 32.4652 31.8268 31.1106C32.4035 30.6948 34.3748 30.4803 35.1929 30.4132C39.4708 30.0377 48.6302 29.9572 52.8143 30.4266C55.6573 30.7485 56.4486 31.8751 57.4275 34.3832L71.5488 83.6593C72.6485 83.8068 72.2596 83.6593 72.4875 83.0289C77.8249 68.3427 79.984 50.746 84.7582 35.7378C85.3482 33.8735 85.6701 31.8885 87.6817 30.9899C90.109 29.9035 91.3159 30.8826 93.408 30.8826C96.2644 30.8826 108.173 30.373 109.702 31.285C110.05 31.4996 110.587 32.1434 110.708 32.5323C111.096 60.9258 110.533 89.3326 110.788 117.713C110.882 128.59 111.418 139.762 111.7 150.626C111.794 154.167 112.049 156.809 107.797 156.997C103.09 157.198 93.9176 157.211 89.358 156.715C88.4595 156.621 86.877 156.259 86.877 155.133V99.8746C85.6165 99.5393 85.603 101.363 85.3751 102.208C80.8155 118.678 78.7369 137.777 73.6677 153.657C72.5412 157.158 70.8783 154.784 70.0468 152.557C64.5083 137.603 62.6576 118.719 57.508 103.281C57.2264 102.45 56.8911 100.451 55.7244 100.773V156.259H33.3824L33.3959 156.299Z" fill="white"/>
<path d="M280.874 198.843C288.451 198.065 309.774 197.877 316.64 199.835C325.571 202.37 329.179 208.473 329.742 217.418C331.619 247.596 327.757 279.503 329.219 309.868C326.188 323.763 314.266 325.869 301.982 326.405C285.353 327.13 262.461 328.471 261.093 306.783C259.337 278.873 262.475 249.138 261.093 221.026C261.871 208.634 268 200.157 280.887 198.856L280.874 198.843ZM286.949 307.32C287.445 307.816 288.598 307.843 289.309 307.897C292.125 308.138 300.815 308.326 303.31 307.87C306.515 307.28 305.335 303.256 305.335 301.352C305.335 273.843 304.49 246.322 304.919 218.76C304.919 217.646 304.409 216.976 303.31 216.761C301.58 216.439 290.664 216.48 288.974 216.842C284.937 217.727 286.828 225.425 286.868 228.229C287.016 238.905 286.935 249.621 286.868 260.297C286.775 274.433 285.205 290.984 286.372 304.959C286.426 305.657 286.453 306.81 286.949 307.32Z" fill="white"/>
<path d="M604.054 198.843C611.349 198.32 628.555 198.159 635.193 199.942C644.313 202.383 650.575 208.459 650.656 218.317C648.899 246.979 652.962 278.363 650.575 306.703C649.167 323.535 636.776 325.802 622.44 326.405C607.004 327.062 582.637 328.431 582.007 307.239C583.415 278.846 580.21 248.776 582.007 220.584C582.919 206.367 590.107 199.849 604.054 198.856V198.843ZM625.256 217.311C624.559 216.801 623.727 216.801 622.896 216.734C620.026 216.506 612.932 216.359 610.263 216.775C609.003 216.976 608.144 217.606 607.849 218.867C607.004 222.515 607.876 230.75 607.769 235.029C607.273 255.147 607.662 275.332 607.313 295.477C607.273 298.012 605.355 307.172 608.882 307.856C611.148 308.286 621.233 308.165 623.781 307.87C624.854 307.749 626.074 307.521 626.262 306.287L625.256 217.298V217.311Z" fill="white"/>
<path d="M204.233 264.119C209.208 267.499 213.352 269.994 214.116 276.566C214.009 290.085 213.473 303.604 213.687 317.137C213.727 319.645 215.605 325.413 212.105 325.869C207.116 326.512 197.179 326.888 192.27 326.365C189.454 326.07 189.521 323.763 189.334 321.188C188.22 306.046 190.205 289.549 189.334 274.259C189.012 272.596 187.376 272.327 185.981 272.193C183.755 271.992 173.549 271.925 172.222 272.918C171.846 273.199 171.632 273.561 171.498 273.991L170.438 325.265C170.13 325.641 169.674 325.721 169.245 325.882C166.992 326.74 153.755 326.633 150.765 326.338C149.893 326.258 147.841 325.909 147.332 325.265L147.815 199.339C148.566 198.749 149.397 198.722 150.282 198.655C161.507 197.702 179.973 197.971 191.372 198.681C220.017 200.452 213.513 223.682 213.7 244.94C213.714 246.979 214.331 248.843 214.156 251.23C213.714 257.668 210.482 262.255 204.233 264.092V264.119ZM189.226 254.543C190.5 253.282 189.642 223.266 189.454 219.108C189.28 218.666 188.971 218.424 188.569 218.196C187.161 217.391 176.848 217.432 174.636 217.633C173.348 217.753 172.316 217.888 171.498 219.001C171.176 230.629 171.028 242.472 171.578 254.087C171.685 254.476 171.927 254.637 172.289 254.798C173.697 255.401 184.667 255.294 186.879 255.12C187.577 255.066 188.73 255.039 189.24 254.543H189.226Z" fill="white"/>
<path d="M72.434 217.204H55.054C53.9275 217.204 53.324 219.122 53.4581 220.114C54.7321 247.032 51.4331 275.023 53.0022 301.807C53.0424 302.491 53.0558 304.248 53.5788 304.624C54.531 305.308 68.8936 305.455 70.8784 305.187C72.0183 305.04 72.6352 304.812 72.8766 303.578L73.2386 273.012C72.2731 268.653 65.246 272.703 63.4892 269.672C62.6443 268.21 62.7784 258.486 62.9259 256.206C63.1137 253.484 63.0064 253.068 65.8629 252.826C72.957 252.236 87.3063 252.142 94.3066 252.853C96.0768 253.027 97.9677 253.255 98.1152 255.361L98.1688 323.012C98.0615 324.098 98.0079 325.735 96.9351 326.284C95.1783 327.183 80.4937 327.049 77.5971 326.848C76.6986 326.781 73.3325 326.378 73.3325 325.252V318.264L65.0716 323.763C50.4944 329.182 29.6544 326.499 28.2061 307.655C26.2616 282.387 27.8976 254.342 27.777 228.684C27.7233 217.821 27.0528 209.049 37.8348 202.692C46.4444 197.622 67.4721 197.957 77.6239 198.708C89.5727 199.607 97.5117 207.534 97.7129 219.685C97.7263 220.53 97.2301 221.415 97.2435 222.367C97.2569 224.245 97.5922 232.976 97.0423 233.888C95.9158 235.793 89.1435 234.358 87.1319 234.318C84.4498 234.264 75.2502 234.854 73.6141 233.835C73.2923 233.634 72.434 232.547 72.434 232.306V217.19V217.204Z" fill="white"/>
<path d="M603.183 156.688C597.268 156.809 591.328 156.755 585.4 156.728C583.549 156.728 580.505 157.949 579.875 155.065C580.318 136.449 580.076 117.833 580.21 99.2038C580.344 80.4 580.572 61.6766 580.21 42.846C580.17 40.7135 579.835 33.0283 580.304 31.6201C580.653 30.5605 582.195 30.48 583.147 30.3996C594.197 29.4071 611.108 29.9436 622.453 30.3996C632.176 30.8019 641.175 31.7005 644.997 42.1486C647.357 48.5998 647.33 76.6177 646.525 84.2626C645.828 90.9955 642.449 92.4977 637.111 95.5959C641.63 98.4124 645.734 101.175 646.525 106.929L646.485 155.508L645.359 156.634C639.002 156.702 630.902 158.016 624.666 157.198C622.775 156.943 622.225 155.602 622.185 153.818L622.105 105.172C621.729 104.367 621.045 103.67 620.16 103.509C618.806 103.254 605.757 103.375 605.047 103.724C604.671 103.911 604.349 104.314 604.242 104.716C604.43 106.822 603.813 108.995 603.705 110.939C602.941 125.062 604.738 140.272 603.719 154.261C603.652 155.092 603.571 155.91 603.183 156.661V156.688ZM622.091 85.8185C623.794 84.1419 621.635 54.7292 621.971 50.2763L620.187 49.3509C616.191 49.9544 611.805 48.5864 607.957 48.9083C604.698 49.1765 603.974 49.9679 603.665 53.1868C602.995 60.4159 602.995 75.3168 603.665 82.5459C603.759 83.6055 604.014 85.6441 605.033 86.1404C606.254 86.7439 614.876 86.3549 617.022 86.3415C618.471 86.3415 620.67 87.1999 622.091 85.805V85.8185Z" fill="white"/>
<path d="M269.006 48.4791C267.919 48.6669 267.074 50.3702 266.954 51.3896C265.827 60.6573 267.852 72.1381 266.954 81.6607C267.048 83.1495 268.027 83.9542 269.435 84.142C275.483 84.9333 283.435 83.6725 289.792 84.1017C299.152 84.7455 308.969 90.0165 311.101 99.7939C312.523 106.326 312.496 134.022 311.544 141.063C310.592 148.104 304.289 153.362 297.785 155.722C290.409 158.391 268.415 158.552 260.557 157.064C242.627 153.67 242.721 137.629 243.941 122.662C243.995 121.964 244.022 120.811 244.518 120.301C245.685 119.121 263.494 119.791 266.417 120.086C267.195 120.489 267.705 120.891 267.879 121.79C268.496 124.955 266.766 135.98 268.979 137.831C274.075 139.212 279.747 138.649 285.058 138.488C286.077 138.072 286.909 137.428 286.868 136.235C285.863 126.417 288.129 114.131 286.868 104.609C286.721 103.469 286.493 102.852 285.259 102.61C272.17 101.43 245.497 107.908 243.955 88.407C246.342 69.335 233.615 32.6931 262.756 30.0241C270.668 29.2998 287.995 29.1389 295.317 31.2043C311.463 35.751 309.653 46.0515 309.854 59.9867C309.894 62.8569 311.785 65.7808 307.413 66.0758C302.451 66.4245 294.231 66.4916 289.322 66.0758C288.706 66.0222 285.956 65.6332 285.956 64.9358V48.4657C280.887 49.0827 273.847 47.6342 269.032 48.4657L269.006 48.4791Z" fill="white"/>
<path d="M527.306 80.6147C527.802 81.111 527.829 82.2644 527.882 82.9753C528.083 85.376 528.177 95.2071 527.319 96.8836C527.118 97.2726 526.93 97.6615 526.528 97.8895L498.795 98.131C496.73 98.4529 496.435 99.6197 496.26 101.471C495.603 108.78 495.979 119.711 496.26 127.222C496.381 130.468 496.958 134.035 496.931 137.388C498.057 139.011 523.993 136.423 526.716 138.3C528.58 139.588 527.413 141.881 527.413 143.437C527.413 145.744 527.922 155.173 526.769 156.326C526.38 156.715 525.965 156.809 525.428 156.796C509.322 155.924 492.157 157.869 476.185 156.796C474.763 156.702 473.382 156.594 472.108 155.91L472.162 31.3922C472.819 30.5205 473.838 30.5339 474.83 30.44C490.762 29.0049 508.812 31.58 524.972 30.44C530.135 30.5741 527.882 37.2802 527.869 40.6332C527.855 44.5629 530.108 48.5195 524.074 48.9755C516.98 49.512 508.102 47.8757 500.565 48.4927C497.816 48.7207 497.038 49.0426 496.743 51.8994C496.207 57.0765 496.408 64.4531 496.274 69.9253C496.207 72.4467 495.469 79.0455 498.071 79.9039C506.814 80.8293 516.322 79.354 524.972 80.0782C525.67 80.1319 526.836 80.1587 527.332 80.655L527.306 80.6147Z" fill="white"/>
<path d="M539.939 199.714C541.119 201.082 540.314 210.082 540.22 212.375C540.166 213.663 541.011 215.822 539.818 217.19C538.624 218.558 528.218 218.129 525.804 218.116C523.122 218.116 519.662 216.547 518.938 220.677C518.213 252.169 519.742 283.875 518.361 315.287C518.267 317.433 519.152 325.091 517.167 325.815C514.526 326.781 500.78 326.66 497.374 326.365C494.986 326.164 493.471 325.748 493.538 322.985V220.584C493.028 218.921 492.908 217.928 491.057 217.66C487.825 217.204 474.455 218.33 472.993 217.204C472.323 216.694 472.001 215.071 471.907 214.226C471.679 212.147 471.598 202.021 472.108 200.439C472.551 199.071 473.932 198.588 475.273 198.641C493.914 199.352 513.158 197.77 531.731 198.641C533.032 198.708 539.563 199.232 539.952 199.674L539.939 199.714Z" fill="white"/>
<path d="M418.412 218.102C416.964 218.572 417.232 226.27 417.259 227.826C417.916 259.921 416.883 292.164 417.299 324.38C417.312 326.164 415.81 326.271 414.362 326.405C409.695 326.821 400.013 326.861 395.386 326.378C392.208 326.043 392.181 325.01 391.98 322.113C390.813 305.16 392.382 286.786 392.476 269.779C392.57 252.773 392.463 236.745 392.342 220.235C392.034 219.041 391.765 217.914 390.411 217.66C387.085 217.016 373.514 218.558 371.797 217.083C370.644 211.852 371.516 206.206 370.885 200.827C371.247 199.231 372.602 198.628 374.157 198.681L436.275 199.352C440.62 200.385 438.515 205.441 438.488 208.392C438.461 210.833 439.976 218.116 436.476 218.116H418.426L418.412 218.102Z" fill="white"/>
<path d="M402.843 156.071C402.641 156.728 401.059 157.131 400.375 157.211C395.856 157.734 386.066 157.587 381.399 157.211C380.058 157.104 378.248 157.104 378.14 155.521L377.577 48.9217H359.299C359.151 48.9217 357.649 47.8621 357.448 47.6073C356.147 45.9576 356.013 35.7376 356.335 33.3368C356.523 31.8883 358.226 30.0777 359.714 30.0374C360.358 30.024 361.163 30.4532 361.981 30.4532C381.815 30.3861 401.649 30.3861 421.483 30.5337C422.851 30.9763 423.441 31.4591 423.629 32.8942C423.843 34.5171 423.763 47.1781 423.374 48.0231C423.28 48.2377 422.556 48.9351 422.476 48.9351H403.513C403.513 48.9351 402.843 49.5655 402.843 49.6057V156.071Z" fill="white"/>
<path d="M163.84 30.8823H187.309C187.684 30.8823 188.113 31.9821 188.006 32.4381C188.167 62.0789 187.724 91.7197 187.966 121.36C188.046 132.05 189.495 143.611 188.462 154.301C188.261 156.406 188.06 156.581 185.981 156.782C181.421 157.224 171.551 157.211 167.005 156.755C165.235 156.581 163.344 156.353 163.197 154.247C162.915 123.734 163.451 93.195 163.197 62.6825C163.116 53.1733 161.748 42.8593 162.7 33.3502C162.808 32.2101 162.794 31.6066 163.854 30.8957L163.84 30.8823Z" fill="white"/>
</svg>
